# xmcd CD database file
#
# Track frame offsets:
#	150
#	16350
#	34425
#	50625
#	79817
#
# Disc length: 1247 seconds
#
# Revision: 0
# Processed by: cddbd v1.5PL3 Copyright (c) Steve Scherf et al.
# Submitted via: CDex 1.51
#
DISCID=3c04dd05
DTITLE=MAX - Love impact
DYEAR=1999
DGENRE=JPop
TTITLE0=Love impact
TTITLE1=HOW MUCH I LOVE YOU
TTITLE2=Love impact (original karaoke)
TTITLE3=HOW MUCH I LOVE YOU (original karaoke)
TTITLE4=CD-EXTRA
EXTD=YEAR: 1999
EXTT0=
EXTT1=
EXTT2=
EXTT3=
EXTT4=
PLAYORDER=
